<?xml version="1.0" encoding="UTF-8"?>
<!DOCTYPE svg PUBLIC "-//W3C//DTD SVG 1.1//EN" "http://www.w3.org/Graphics/SVG/1.1/DTD/svg11.dtd">
<!-- Creator: CorelDRAW 2019 (64 Bit) -->
<svg xmlns="http://www.w3.org/2000/svg" xml:space="preserve" width="50px" height="59px" version="1.1" style="shape-rendering:geometricPrecision; text-rendering:geometricPrecision; image-rendering:optimizeQuality; fill-rule:evenodd; clip-rule:evenodd"
viewBox="0 0 0.09 0.1"
 xmlns:xlink="http://www.w3.org/1999/xlink">
 <defs>
   <clipPath id="id0">
    <path d="M0 0.02l0.01 -0.01 0 0c0,0 0,0 0,0l0 0c0.01,0 0.01,0 0.01,0 0,-0.01 0.01,-0.01 0.01,-0.01l0 0 0 0 0 0 0.01 0 0.02 0.01c0,0 0,0 0,0l0 0 0 0 0.03 0.01c0,0 0,0 0,0l-0.01 0.07 0 0c0,0.01 0,0.01 0,0.01l-0.03 0c0,0.01 0,0 -0.01,0l-0.03 -0.01 0 0 0 0 -0.01 -0.07z"/>
   </clipPath>
 </defs>
 <g id="Camada_x0020_1">
  <metadata id="CorelCorpID_0Corel-Layer"/>
  <g style="clip-path:url(#id0)">
   <image x="-0.02" y="-0.01" width="0.14" height="0.14" xlink:href="lixeira_Images\lixeira_ImgID1.png"/>
  </g>
 </g>
</svg>
